name ./resultDataOpenSim/trcMotMarkerGrf/sub09/grf-13-06.mot
datacolumns 19
datarows 22
range 0.95600000 1.04000000
endheader

                time	     ground_force_vx	     ground_force_vy	     ground_force_vz	     ground_force_px	     ground_force_py	     ground_force_pz	   l_ground_force_vx	   l_ground_force_vy	   l_ground_force_vz	   l_ground_force_px	   l_ground_force_py	   l_ground_force_pz	     ground_torque_x	     ground_torque_y	     ground_torque_z	   l_ground_torque_x	   l_ground_torque_y	   l_ground_torque_z	
          0.95600000	          0.00000000	          0.00000000	          0.00000000	          0.00000000	          0.00000000	          0.00000000	         10.27478541	        397.76771822	         15.04935405	          0.17865556	         -0.05000000	          0.00112717	          0.00000000	          0.00000000	          0.00000000	          0.00000000	         -0.77164996	          0.00000000	
          0.96000000	          0.00000000	          0.00000000	          0.00000000	          0.00000000	          0.00000000	          0.00000000	         12.83155313	        401.63827714	         15.33073105	          0.17927036	         -0.05000000	          0.00134497	          0.00000000	          0.00000000	          0.00000000	          0.00000000	         -0.94122075	          0.00000000	
          0.96400000	          0.00000000	          0.00000000	          0.00000000	          0.00000000	          0.00000000	          0.00000000	         15.70539846	        406.07697013	         15.53563972	          0.17984806	         -0.05000000	          0.00152942	          0.00000000	          0.00000000	          0.00000000	          0.00000000	         -1.13186141	          0.00000000	
          0.96800000	          0.00000000	          0.00000000	          0.00000000	          0.00000000	          0.00000000	          0.00000000	         18.92311097	        411.21918931	         15.63969992	          0.18040217	         -0.05000000	          0.00170391	          0.00000000	          0.00000000	          0.00000000	          0.00000000	         -1.34960038	          0.00000000	
          0.97200000	          0.00000000	          0.00000000	          0.00000000	          0.00000000	          0.00000000	          0.00000000	         22.48656316	        417.15270968	         15.61961991	          0.18094571	         -0.05000000	          0.00188196	          0.00000000	          0.00000000	          0.00000000	          0.00000000	         -1.60025576	          0.00000000	
          0.97600000	          0.00000000	          0.00000000	          0.00000000	          0.00000000	          0.00000000	          0.00000000	         26.39535126	        423.88739172	         15.44119011	          0.18148454	         -0.05000000	          0.00206752	          0.00000000	          0.00000000	          0.00000000	          0.00000000	         -1.88820268	          0.00000000	
          0.98000000	          0.00000000	          0.00000000	          0.00000000	          0.00000000	          0.00000000	          0.00000000	         30.65894302	        431.36995773	         15.07295812	          0.18199909	         -0.05000003	          0.00225450	          0.00000000	          0.00000000	          0.00000000	          0.00000000	         -2.21517253	          0.00000000	
          0.98400000	          0.00000000	          0.00000000	          0.00000000	          0.00000000	          0.00000000	          0.00000000	         35.28715642	        439.55346541	         14.50815221	          0.18245323	         -0.05000030	          0.00244247	          0.00000000	          0.00000000	          0.00000000	          0.00000000	         -2.57934806	          0.00000000	
          0.98800000	          0.00000000	          0.00000000	          0.00000000	          0.00000000	          0.00000000	          0.00000000	         40.27345109	        448.46168063	         13.76503851	          0.18281894	         -0.05000100	          0.00264891	          0.00000000	          0.00000000	          0.00000000	          0.00000000	         -2.97501138	          0.00000000	
          0.99200000	          0.00000000	          0.00000000	          0.00000000	          0.00000000	          0.00000000	          0.00000000	         45.58218157	        458.12410857	         12.87301691	          0.18310324	         -0.05000100	          0.00288992	          0.00000000	          0.00000000	          0.00000000	          0.00000000	         -3.39285458	          0.00000000	
          0.99600000	          0.00000000	          0.00000000	          0.00000000	          0.00000000	          0.00000000	          0.00000000	         51.14167585	        468.45252514	         11.87162845	          0.18337899	         -0.05000100	          0.00317285	          0.00000000	          0.00000000	          0.00000000	          0.00000000	         -3.82085637	          0.00000000	
          1.00000000	          0.00000000	          0.00000000	          0.00000000	          0.00000000	          0.00000000	          0.00000000	         56.84650428	        479.25552901	         10.82137332	          0.18375783	         -0.05000100	          0.00350901	          0.00000000	          0.00000000	          0.00000000	          0.00000000	         -4.24552387	          0.00000000	
          1.00400000	          0.00000000	          0.00000000	          0.00000000	          0.00000000	          0.00000000	          0.00000000	         62.57666414	        490.38123872	          9.80192030	          0.18427596	         -0.05000100	          0.00390279	          0.00000000	          0.00000000	          0.00000000	          0.00000000	         -4.65330677	          0.00000000	
          1.00800000	          0.00000000	          0.00000000	          0.00000000	          0.00000000	          0.00000000	          0.00000000	         68.22944804	        501.80009551	          8.89598700	          0.18486902	         -0.05000100	          0.00433904	          0.00000000	          0.00000000	          0.00000000	          0.00000000	         -5.03202063	          0.00000000	
          1.01200000	          0.00000000	          0.00000000	          0.00000000	          0.00000000	          0.00000000	          0.00000000	         73.75039643	        513.56013122	          8.17863238	          0.18546648	         -0.05000100	          0.00478277	          0.00000000	          0.00000000	          0.00000000	          0.00000000	         -5.37214421	          0.00000000	
          1.01600000	          0.00000000	          0.00000000	          0.00000000	          0.00000000	          0.00000000	          0.00000000	         79.15031685	        525.72275072	          7.71309601	          0.18599421	         -0.05000100	          0.00519950	          0.00000000	          0.00000000	          0.00000000	          0.00000000	         -5.66783820	          0.00000000	
          1.02000000	          0.00000000	          0.00000000	          0.00000000	          0.00000000	          0.00000000	          0.00000000	         84.49337431	        538.32881365	          7.53185567	          0.18640515	         -0.05000100	          0.00558510	          0.00000000	          0.00000000	          0.00000000	          0.00000000	         -5.91742085	          0.00000000	
          1.02400000	          0.00000000	          0.00000000	          0.00000000	          0.00000000	          0.00000000	          0.00000000	         89.86215373	        551.35631157	          7.60580405	          0.18669892	         -0.05000100	          0.00594093	          0.00000000	          0.00000000	          0.00000000	          0.00000000	         -6.12297807	          0.00000000	
          1.02800000	          0.00000000	          0.00000000	          0.00000000	          0.00000000	          0.00000000	          0.00000000	         95.32922655	        564.67831553	          7.84927709	          0.18694021	         -0.05000100	          0.00627538	          0.00000000	          0.00000000	          0.00000000	          0.00000000	         -6.28905071	          0.00000000	
          1.03200000	          0.00000000	          0.00000000	          0.00000000	          0.00000000	          0.00000000	          0.00000000	        100.94103771	        578.06257860	          8.17748725	          0.18722769	         -0.05000100	          0.00659529	          0.00000000	          0.00000000	          0.00000000	          0.00000000	         -6.42088901	          0.00000000	
          1.03600000	          0.00000000	          0.00000000	          0.00000000	          0.00000000	          0.00000000	          0.00000000	        106.70497298	        591.24514016	          8.55622839	          0.18763291	         -0.05000100	          0.00689589	          0.00000000	          0.00000000	          0.00000000	          0.00000000	         -6.52309519	          0.00000000	
          1.04000000	          0.00000000	          0.00000000	          0.00000000	          0.00000000	          0.00000000	          0.00000000	        112.58893752	        604.04148521	          8.99152349	          0.18817430	         -0.05000100	          0.00716217	          0.00000000	          0.00000000	          0.00000000	          0.00000000	         -6.59915942	          0.00000000	
